<mxfile host="app.diagrams.net" modified="2021-09-26T09:42:47.352Z" agent="5.0 (Windows)" etag="nNZyL3V-siRpJmuBO4L-" version="15.3.3" type="github">
  <diagram name="Page-1" id="74b105a0-9070-1c63-61bc-23e55f88626e">
    <mxGraphModel dx="1450" dy="940" grid="1" gridSize="10" guides="1" tooltips="1" connect="1" arrows="1" fold="1" page="1" pageScale="1.5" pageWidth="1169" pageHeight="826" background="#FFE6CC" math="0" shadow="0">
      <root>
        <object label="" id="0">
          <mxCell style=";html=1;" />
        </object>
        <mxCell id="1" style=";html=1;" parent="0" />
        <mxCell id="-odrb-ukide1JnQ3F3Fc-9" value="" style="group" vertex="1" connectable="0" parent="1">
          <mxGeometry x="525" y="590" width="190" height="190" as="geometry" />
        </mxCell>
        <mxCell id="-odrb-ukide1JnQ3F3Fc-5" value="Redis" style="shape=hexagon;perimeter=hexagonPerimeter2;whiteSpace=wrap;html=1;fixedSize=1;hachureGap=4;pointerEvents=0;fontSize=50;fillColor=#f8cecc;strokeColor=#b85450;" vertex="1" parent="-odrb-ukide1JnQ3F3Fc-9">
          <mxGeometry width="190" height="190" as="geometry" />
        </mxCell>
        <mxCell id="-odrb-ukide1JnQ3F3Fc-18" value="Mongo" style="ellipse;whiteSpace=wrap;html=1;aspect=fixed;hachureGap=4;pointerEvents=0;fontSize=50;fillColor=#d5e8d4;strokeColor=#82b366;" vertex="1" parent="1">
          <mxGeometry x="820" y="920" width="190" height="190" as="geometry" />
        </mxCell>
        <mxCell id="-odrb-ukide1JnQ3F3Fc-19" value="Mysql" style="shape=cylinder3;whiteSpace=wrap;html=1;boundedLbl=1;backgroundOutline=1;size=15;hachureGap=4;pointerEvents=0;fontSize=50;fillColor=#dae8fc;strokeColor=#6c8ebf;" vertex="1" parent="1">
          <mxGeometry x="1240" y="915" width="160" height="200" as="geometry" />
        </mxCell>
        <mxCell id="-odrb-ukide1JnQ3F3Fc-20" value="ELK" style="ellipse;shape=cloud;whiteSpace=wrap;html=1;hachureGap=4;pointerEvents=0;fontSize=50;fillColor=#017D73;" vertex="1" parent="1">
          <mxGeometry x="477.5" y="190" width="252.5" height="210" as="geometry" />
        </mxCell>
        <mxCell id="-odrb-ukide1JnQ3F3Fc-21" value="北斗短报文" style="ellipse;whiteSpace=wrap;html=1;hachureGap=4;pointerEvents=0;fontSize=50;" vertex="1" parent="1">
          <mxGeometry x="1370" y="650" width="290" height="120" as="geometry" />
        </mxCell>
        <mxCell id="-odrb-ukide1JnQ3F3Fc-23" value="定位终端" style="ellipse;whiteSpace=wrap;html=1;hachureGap=4;pointerEvents=0;fontSize=50;" vertex="1" parent="1">
          <mxGeometry x="930" y="650" width="290" height="120" as="geometry" />
        </mxCell>
        <mxCell id="-odrb-ukide1JnQ3F3Fc-24" value="基础位置数据" style="rounded=0;whiteSpace=wrap;html=1;hachureGap=4;pointerEvents=0;fontSize=50;" vertex="1" parent="1">
          <mxGeometry x="870" y="270" width="370" height="100" as="geometry" />
        </mxCell>
        <mxCell id="-odrb-ukide1JnQ3F3Fc-25" value="地理信息处理" style="rounded=0;whiteSpace=wrap;html=1;hachureGap=4;pointerEvents=0;fontSize=50;" vertex="1" parent="1">
          <mxGeometry x="1460" y="270" width="370" height="100" as="geometry" />
        </mxCell>
        <mxCell id="-odrb-ukide1JnQ3F3Fc-26" value="AI" style="rounded=0;whiteSpace=wrap;html=1;hachureGap=4;pointerEvents=0;fontSize=50;" vertex="1" parent="1">
          <mxGeometry x="1980" y="270" width="370" height="100" as="geometry" />
        </mxCell>
      </root>
    </mxGraphModel>
  </diagram>
</mxfile>
